<svg width="48" height="48" viewBox="0 0 48 48" fill="none" xmlns="http://www.w3.org/2000/svg">
  <g clip-path="url(#clip0_16_8408)">
    <path
      d="M7.03132 23.8308C7.0655 28.1654 8.75304 32.5118 12.0848 35.8436C18.7504 42.5092 29.4719 42.5927 36.0323 36.0323C42.5927 29.4719 42.5092 18.7504 35.8436 12.0848C29.179 5.42024 18.4565 5.33576 11.8961 11.8961M11.8961 11.8961L10.8597 6.8991M11.8961 11.8961L16.8938 12.9332M6.89991 10.8589L7.93701 15.8558L12.934 16.8929"
      stroke="#F2F2F2" stroke-width="2.4" stroke-linecap="round" stroke-linejoin="round" />
    <path
      d="M18.9785 30V19.7297H18.9457L15.8121 21.9855V20.427L18.9621 18.1629H20.4059V30H18.9785ZM27.5508 30.1969C24.7863 30.1969 23.1867 27.818 23.1867 24.0773C23.1867 20.3695 24.8027 17.966 27.5508 17.966C30.2988 17.966 31.8984 20.3531 31.8984 24.0691C31.8984 27.8098 30.307 30.1969 27.5508 30.1969ZM27.5508 28.909C29.3965 28.909 30.4137 27.0305 30.4137 24.0773C30.4137 21.1652 29.3801 19.2621 27.5508 19.2621C25.7215 19.2621 24.6715 21.1816 24.6715 24.0691C24.6715 27.0223 25.6969 28.909 27.5508 28.909Z"
      fill="white" />
  </g>
  <defs>
    <clipPath id="clip0_16_8408">
      <rect width="48" height="48" fill="white" transform="matrix(-1 0 0 1 48 0)" />
    </clipPath>
  </defs>
</svg>
  