<svg width="24" height="24" viewBox="0 0 24 24" fill="none" xmlns="http://www.w3.org/2000/svg">
  <path
    d="M2 12.05C4.03079 12.2759 5.92428 13.186 7.36911 14.6309C8.81395 16.0757 9.72414 17.9692 9.95 20M2 16.1C2.96089 16.296 3.84294 16.7702 4.53638 17.4636C5.22982 18.157 5.70403 19.0391 5.9 20M2 20H2.01M14 21H17.2C18.8802 21 19.7202 21 20.362 20.673C20.9265 20.3854 21.3854 19.9265 21.673 19.362C22 18.7202 22 17.8802 22 16.2V7.8C22 6.11984 22 5.27976 21.673 4.63803C21.3854 4.07354 20.9265 3.6146 20.362 3.32698C19.7202 3 18.8802 3 17.2 3H6.8C5.11984 3 4.27976 3 3.63803 3.32698C3.07354 3.6146 2.6146 4.07354 2.32698 4.63803C2 5.27976 2 6.11984 2 7.8V8"
    stroke="black" stroke-width="2" stroke-linecap="round" stroke-linejoin="round" />
</svg>
  