<svg width="32" height="32" viewBox="0 0 32 32" fill="none" xmlns="http://www.w3.org/2000/svg">
  <path
    d="M25 18V20.2C25 21.8802 25 22.7202 24.673 23.362C24.3854 23.9265 23.9265 24.3854 23.362 24.673C22.7202 25 21.8802 25 20.2 25H18M14 7H11.8C10.1198 7 9.27976 7 8.63803 7.32698C8.07354 7.6146 7.6146 8.07354 7.32698 8.63803C7 9.27976 7 10.1198 7 11.8V14M19 13L25 7M25 7H19M25 7V13M13 19L7 25M7 25H13M7 25V19"
    stroke="white" stroke-width="2" stroke-linecap="round" stroke-linejoin="round" />
</svg>
  