<svg width="32" height="32" viewBox="0 0 32 32" fill="none" xmlns="http://www.w3.org/2000/svg">
  <path
    d="M12 15V11C12 9.93913 12.4214 8.92172 13.1716 8.17157C13.9217 7.42143 14.9391 7 16 7C17.0609 7 18.0783 7.42143 18.8284 8.17157C19.5786 8.92172 20 9.93913 20 11V15"
    stroke="white" stroke-width="2" stroke-linecap="round" stroke-linejoin="round" />
  <path fill-rule="evenodd" clip-rule="evenodd"
    d="M7.81818 14H24.1818C24.6337 14 25 14.3358 25 14.75V25.25C25 25.6642 24.6337 26 24.1818 26H7.81818C7.36631 26 7 25.6642 7 25.25V14.75C7 14.3358 7.36631 14 7.81818 14ZM18 20C18 21.1046 17.1046 22 16 22C14.8954 22 14 21.1046 14 20C14 18.8954 14.8954 18 16 18C17.1046 18 18 18.8954 18 20Z"
    fill="white" />
</svg>
  