<svg width="32" height="32" viewBox="0 0 32 32" fill="none" xmlns="http://www.w3.org/2000/svg">
  <path
    d="M12 14V10C12 8.97765 12.3927 7.99412 13.0974 7.25138C13.8021 6.50864 14.7653 6.06308 15.7892 6.0062C16.8131 5.94932 17.82 6.28543 18.6031 6.94551C19.3862 7.6056 19.886 8.53955 20 9.55556"
    stroke="white" stroke-width="2" stroke-linecap="round" stroke-linejoin="round" />
  <path fill-rule="evenodd" clip-rule="evenodd"
    d="M7.81818 14H24.1818C24.6337 14 25 14.3358 25 14.75V25.25C25 25.6642 24.6337 26 24.1818 26H7.81818C7.36631 26 7 25.6642 7 25.25V14.75C7 14.3358 7.36631 14 7.81818 14ZM18 20C18 21.1046 17.1046 22 16 22C14.8954 22 14 21.1046 14 20C14 18.8954 14.8954 18 16 18C17.1046 18 18 18.8954 18 20Z"
    fill="white" />
</svg>
  