<svg width="48" height="48" viewBox="0 0 48 48" fill="none" xmlns="http://www.w3.org/2000/svg">
  <path
    d="M42.7778 22.7199L15.7822 6.22204C15.5548 6.08308 15.2945 6.00721 15.0281 6.00222C14.7617 5.99723 14.4987 6.06331 14.2663 6.19365C14.0338 6.324 13.8403 6.51392 13.7057 6.74386C13.571 6.9738 13.5 7.23547 13.5 7.50195V40.4977C13.5 40.7642 13.571 41.0258 13.7057 41.2558C13.8403 41.4857 14.0338 41.6756 14.2663 41.806C14.4987 41.9363 14.7617 42.0024 15.0281 41.9974C15.2945 41.9924 15.5548 41.9166 15.7822 41.7776L42.7778 25.2797C42.9971 25.1457 43.1782 24.9577 43.3039 24.7335C43.4296 24.5094 43.4956 24.2568 43.4956 23.9998C43.4956 23.7429 43.4296 23.4902 43.3039 23.2661C43.1782 23.042 42.9971 22.8539 42.7778 22.7199Z"
    fill="white" />
</svg>
  