<svg xmlns="http://www.w3.org/2000/svg" width="32" height="32" viewBox="0 0 32 32" fill="none">
  <path
    d="M28.8008 14.6957C28.3176 14.8336 27.6733 14.9914 27.5315 15.0319C26.7014 12.7498 26.4821 12.1203 25.4095 10.4792C24.4503 9.0116 23.2091 7.6197 22.4963 7.06633C20.777 5.73121 20.7567 5.75749 19.1366 7.19413C17.9238 5.84572 16.7071 4.49309 15.609 3.27183C20.8862 2.60492 25.571 6.58674 28.2928 12.9673C28.3632 13.2411 28.8008 14.3272 28.8008 14.6957C28.8008 15.0162 28.8008 14.3749 28.8008 14.6957Z"
    fill="white" />
  <path
    d="M2.80078 17.3027C3.28396 17.1649 3.92823 17.0071 4.07002 16.9665C4.90016 19.2486 5.11945 19.8781 6.19209 21.5192C7.1513 22.9868 8.39248 24.3787 9.1053 24.9321C10.8245 26.2672 10.8449 26.241 12.4649 24.8043C13.6777 26.1527 14.8944 27.5054 15.9926 28.7266C10.7154 29.3935 6.03059 25.4117 3.30875 19.0311C3.23834 18.7574 2.80078 17.6712 2.80078 17.3027C2.80078 17.6235 2.80078 16.9823 2.80078 17.3027Z"
    fill="white" />
  <path
    d="M4.77159 14.093C4.14093 13.4597 4.14093 12.4327 4.77159 11.7994L11.5437 4.99812C12.1744 4.36475 13.1969 4.36475 13.8275 4.99812L26.6595 17.8853C27.2901 18.5187 27.2901 19.5456 26.6595 20.179L19.8874 26.9802C19.2567 27.6136 18.2342 27.6136 17.6036 26.9802L4.77159 14.093Z"
    fill="white" />
</svg>