<svg width="32" height="32" viewBox="0 0 32 32" fill="none" xmlns="http://www.w3.org/2000/svg">
  <path
    d="M12.3745 4C12.872 4.03492 13.2584 4.25467 13.5698 4.6497C14.1967 5.44503 15.0029 5.87012 15.9851 5.87613C16.9875 5.88225 17.8082 5.45173 18.4472 4.64094C18.7853 4.21205 19.2091 3.99425 19.7382 4.03671C19.8933 4.04916 20.051 4.09194 20.1973 4.14954C21.4406 4.63841 22.5736 5.33067 23.5971 6.22211C24.159 6.71155 24.3257 7.33414 24.0891 8.06232C23.4289 10.0949 24.5289 12.0953 26.5209 12.4848C27.263 12.6299 27.6796 13.0759 27.8174 13.8488C28.0731 15.283 28.0543 16.7144 27.7982 18.1452C27.6748 18.8344 27.1827 19.3265 26.5117 19.4344C24.449 19.7661 23.2842 21.8623 24.0158 23.9259C24.2789 24.6679 24.1176 25.3118 23.5395 25.813C22.6066 26.6218 21.5801 27.266 20.4634 27.7499C19.7897 28.0418 19.1345 27.8598 18.6741 27.2571C17.2934 25.4493 14.9527 25.4801 13.618 27.3237C13.1555 27.9626 12.5092 28.1577 11.7995 27.8711C10.6007 27.3869 9.50077 26.7226 8.50301 25.8687C7.877 25.333 7.71485 24.6851 8.02385 23.9004C8.61713 22.394 8.16022 20.7348 6.90574 19.847C6.51285 19.5689 6.08278 19.3917 5.61217 19.3241C4.69759 19.193 4.27626 18.7682 4.13151 17.7984C3.92467 16.4129 3.96551 15.0301 4.22803 13.6568C4.36734 12.9278 4.85304 12.4797 5.57543 12.3776C7.65591 12.0833 8.85371 10.0015 8.14357 7.91394C7.88265 7.14688 8.06224 6.49829 8.67246 5.99714C9.62543 5.21441 10.6683 4.60043 11.7986 4.15413C11.9829 4.08134 12.1821 4.05032 12.3745 4ZM16.0219 11.7889C13.8008 11.7897 12.0025 13.6765 12.005 16.0033C12.0075 18.3428 13.794 20.2262 16.0122 20.228C18.2166 20.2298 20.0052 18.3295 20.004 15.9869C20.0028 13.6863 18.2022 11.7881 16.0219 11.7889Z"
    fill="white" />
</svg>
  