<svg xmlns="http://www.w3.org/2000/svg" width="24" height="24" viewBox="0 0 24 24" fill="none">
  <path
    d="M20.25 4.5H3.75C3.33579 4.5 3 4.83579 3 5.25V18.75C3 19.1642 3.33579 19.5 3.75 19.5H20.25C20.6642 19.5 21 19.1642 21 18.75V5.25C21 4.83579 20.6642 4.5 20.25 4.5Z"
    stroke="white" stroke-width="2" stroke-linecap="round" stroke-linejoin="round" />
  <path
    d="M10.5948 14.3254C10.1947 14.5349 9.74737 14.6377 9.29595 14.6237C8.84454 14.6098 8.40436 14.4796 8.01796 14.2458C7.63157 14.012 7.31204 13.6825 7.09026 13.289C6.86848 12.8956 6.75195 12.4516 6.75195 12C6.75195 11.5484 6.86847 11.1044 7.09025 10.711C7.31203 10.3175 7.63156 9.98799 8.01795 9.75417C8.40434 9.52036 8.84452 9.39019 9.29594 9.37625C9.74735 9.36231 10.1947 9.46508 10.5948 9.67461"
    stroke="white" stroke-width="2" stroke-linecap="round" stroke-linejoin="round" />
  <path
    d="M17.3448 14.3254C16.9447 14.5349 16.4974 14.6377 16.046 14.6237C15.5945 14.6098 15.1544 14.4796 14.768 14.2458C14.3816 14.012 14.062 13.6825 13.8403 13.289C13.6185 12.8956 13.502 12.4516 13.502 12C13.502 11.5484 13.6185 11.1044 13.8403 10.711C14.062 10.3175 14.3816 9.98799 14.768 9.75417C15.1543 9.52036 15.5945 9.39019 16.0459 9.37625C16.4974 9.36231 16.9447 9.46508 17.3448 9.67461"
    stroke="white" stroke-width="2" stroke-linecap="round" stroke-linejoin="round" />
</svg>