<svg width="32" height="32" viewBox="0 0 32 32" fill="none" xmlns="http://www.w3.org/2000/svg">
  <path
    d="M24.4857 7.5145C22.2335 5.26737 19.1819 4.00537 16.0004 4.00537C12.8188 4.00537 9.76723 5.26737 7.51502 7.5145L4.97949 10.05V6.46427C4.97949 6.19905 4.87414 5.9447 4.6866 5.75716C4.49906 5.56963 4.24471 5.46427 3.97949 5.46427C3.71428 5.46427 3.45992 5.56963 3.27239 5.75716C3.08485 5.9447 2.97949 6.19905 2.97949 6.46427V12.4636C2.97949 12.4969 2.98116 12.5301 2.98449 12.5633C2.9858 12.5767 2.9884 12.5898 2.99023 12.6031C2.99288 12.6221 2.99517 12.6412 2.99893 12.66C3.00207 12.6758 3.00643 12.6911 3.01028 12.7066C3.01431 12.7227 3.01788 12.7389 3.0227 12.7549C3.02734 12.7702 3.03314 12.785 3.03848 12.8C3.04412 12.8158 3.04934 12.8317 3.05578 12.8473C3.06155 12.8612 3.06835 12.8745 3.0747 12.888C3.08221 12.9041 3.08938 12.9203 3.0978 12.936C3.1047 12.9488 3.11257 12.961 3.11999 12.9735C3.12921 12.989 3.13799 13.0047 3.1481 13.0198C3.15728 13.0335 3.16751 13.0464 3.17733 13.0596C3.18698 13.0725 3.19598 13.0858 3.20632 13.0983C3.22491 13.1209 3.24468 13.1425 3.26513 13.1634C3.26763 13.166 3.26977 13.1688 3.27233 13.1714C3.27435 13.1734 3.27658 13.175 3.27858 13.177C3.30004 13.1981 3.32228 13.2184 3.34557 13.2375C3.35732 13.2472 3.36971 13.2556 3.38176 13.2646C3.39583 13.2751 3.4096 13.286 3.42424 13.2958C3.43837 13.3053 3.45305 13.3135 3.46755 13.3221C3.48107 13.3302 3.49431 13.3387 3.50823 13.3462C3.52282 13.354 3.53783 13.3606 3.55273 13.3676C3.56744 13.3746 3.58193 13.3819 3.59704 13.3882C3.61126 13.394 3.62576 13.3988 3.64016 13.4039C3.65655 13.4099 3.67273 13.4161 3.68951 13.4212C3.70373 13.4255 3.7182 13.4286 3.73257 13.4323C3.74978 13.4367 3.76681 13.4415 3.78436 13.4449C3.80066 13.4482 3.81714 13.45 3.83355 13.4524C3.84943 13.4548 3.86505 13.4577 3.88116 13.4593C3.91015 13.4622 3.9393 13.4634 3.96844 13.4637C3.97216 13.4637 3.97577 13.4643 3.97949 13.4643H9.97949C10.2447 13.4643 10.4991 13.3589 10.6866 13.1714C10.8741 12.9838 10.9795 12.7295 10.9795 12.4643C10.9795 12.199 10.8741 11.9447 10.6866 11.7572C10.4991 11.5696 10.2447 11.4643 9.97949 11.4643H6.39374L8.92932 8.92868C10.3278 7.53016 12.1097 6.57776 14.0495 6.19191C15.9893 5.80606 18 6.0041 19.8272 6.76097C21.6545 7.51785 23.2162 8.79957 24.3151 10.4441C25.4139 12.0886 26.0004 14.0219 26.0004 15.9998C26.0004 17.9776 25.4139 19.911 24.3151 21.5554C23.2162 23.1999 21.6545 24.4817 19.8272 25.2385C18 25.9954 15.9893 26.1935 14.0495 25.8076C12.1097 25.4218 10.3278 24.4694 8.92932 23.0708C8.83646 22.978 8.72621 22.9043 8.60488 22.854C8.48354 22.8038 8.3535 22.7779 8.22217 22.7779C8.09084 22.7779 7.96079 22.8038 7.83946 22.854C7.71813 22.9043 7.60788 22.978 7.51502 23.0708C7.42215 23.1637 7.34849 23.2739 7.29823 23.3953C7.24797 23.5166 7.2221 23.6467 7.2221 23.778C7.2221 23.9093 7.24797 24.0394 7.29823 24.1607C7.34849 24.282 7.42215 24.3923 7.51502 24.4851C8.62923 25.5999 9.95213 26.4842 11.4082 27.0876C12.8642 27.691 14.4248 28.0017 16.0009 28.0019C17.577 28.0021 19.1378 27.6918 20.5939 27.0887C22.0501 26.4857 23.3732 25.6017 24.4877 24.4872C25.6022 23.3727 26.4862 22.0496 27.0893 20.5934C27.6923 19.1372 28.0026 17.5765 28.0025 16.0004C28.0023 14.4243 27.6916 12.8637 27.0882 11.4076C26.4848 9.95161 25.6005 8.62871 24.4857 7.5145Z"
    fill="#F1F1F1" />
  <path
    d="M13.4183 20.2381V12.9021H13.3949L11.1566 14.5135V13.4002L13.4066 11.783H14.4379V20.2381H13.4183Z"
    fill="#F1F1F1" />
  <path
    d="M19.5414 20.3787C17.5668 20.3787 16.4242 18.6795 16.4242 16.0076C16.4242 13.3592 17.5785 11.6424 19.5414 11.6424C21.5043 11.6424 22.6468 13.3474 22.6468 16.0017C22.6468 18.6736 21.5101 20.3787 19.5414 20.3787ZM19.5414 19.4588C20.8597 19.4588 21.5863 18.117 21.5863 16.0076C21.5863 13.9275 20.848 12.5681 19.5414 12.5681C18.2347 12.5681 17.4847 13.9392 17.4847 16.0017C17.4847 18.1111 18.2172 19.4588 19.5414 19.4588Z"
    fill="#F1F1F1" />
</svg>
  