<svg width="32" height="32" viewBox="0 0 32 32" fill="none" xmlns="http://www.w3.org/2000/svg">
  <path
    d="M28.1669 13.4524C28.1833 13.45 28.1997 13.4481 28.216 13.4449C28.2336 13.4414 28.2506 13.4366 28.2678 13.4323C28.2822 13.4286 28.2967 13.4255 28.3109 13.4212C28.3277 13.4161 28.3439 13.4098 28.3602 13.4039C28.3746 13.3987 28.3891 13.394 28.4034 13.3881C28.4185 13.3819 28.433 13.3745 28.4477 13.3676C28.4626 13.3605 28.4776 13.3539 28.4922 13.3461C28.5061 13.3387 28.5193 13.3302 28.5329 13.3221C28.5474 13.3135 28.562 13.3053 28.5762 13.2958C28.5908 13.286 28.6046 13.2751 28.6186 13.2646C28.6307 13.2555 28.6431 13.2472 28.6548 13.2375C28.6781 13.2184 28.7004 13.1981 28.7218 13.177C28.7238 13.175 28.7261 13.1733 28.7281 13.1713C28.7306 13.1688 28.7328 13.1659 28.7353 13.1633C28.7557 13.1425 28.7755 13.1209 28.7941 13.0983C28.8044 13.0857 28.8134 13.0725 28.8231 13.0595C28.8329 13.0463 28.8431 13.0335 28.8523 13.0198C28.8624 13.0047 28.8712 12.989 28.8804 12.9735C28.8878 12.961 28.8957 12.9488 28.9026 12.936C28.911 12.9202 28.9182 12.9041 28.9257 12.888C28.9321 12.8744 28.9389 12.8611 28.9446 12.8473C28.9511 12.8317 28.9563 12.8158 28.9619 12.8C28.9673 12.785 28.9731 12.7702 28.9777 12.7549C28.9825 12.7389 28.9861 12.7227 28.9901 12.7065C28.994 12.691 28.9983 12.6758 29.0015 12.66C29.0052 12.6411 29.0075 12.6221 29.0102 12.6031C29.012 12.5898 29.0146 12.5767 29.0159 12.5632C29.0192 12.5301 29.0209 12.4969 29.0209 12.4636V6.46424C29.0209 6.19902 28.9156 5.94467 28.728 5.75713C28.5405 5.5696 28.2861 5.46424 28.0209 5.46424C27.7557 5.46424 27.5013 5.5696 27.3138 5.75713C27.1263 5.94467 27.0209 6.19902 27.0209 6.46424V10.05L24.4854 7.51447C22.8075 5.83815 20.6703 4.69692 18.3439 4.23502C16.0175 3.77313 13.6064 4.01131 11.4154 4.91947C9.22437 5.82763 7.35177 7.36499 6.03431 9.33721C4.71685 11.3094 4.01367 13.628 4.01367 15.9998C4.01367 18.3715 4.71685 20.6901 6.03431 22.6623C7.35177 24.6345 9.22437 26.1719 11.4154 27.0801C13.6064 27.9882 16.0175 28.2264 18.3439 27.7645C20.6703 27.3026 22.8075 26.1614 24.4854 24.4851C24.5784 24.3922 24.6521 24.282 24.7025 24.1606C24.7528 24.0392 24.7787 23.9092 24.7788 23.7778C24.7788 23.6464 24.753 23.5163 24.7027 23.3949C24.6525 23.2735 24.5788 23.1632 24.4859 23.0703C24.3929 22.9774 24.2826 22.9037 24.1612 22.8535C24.0398 22.8032 23.9097 22.7774 23.7783 22.7774C23.647 22.7775 23.5169 22.8034 23.3955 22.8538C23.2742 22.9041 23.1639 22.9779 23.0711 23.0709C21.6726 24.4694 19.8907 25.4218 17.9509 25.8076C16.0111 26.1935 14.0004 25.9954 12.1732 25.2386C10.3459 24.4817 8.78414 23.2 7.68533 21.5555C6.58652 19.911 6.00003 17.9776 6.00003 15.9998C6.00003 14.022 6.58652 12.0886 7.68533 10.4441C8.78414 8.79957 10.3459 7.51785 12.1732 6.76097C14.0004 6.00409 16.0111 5.80605 17.9509 6.19189C19.8907 6.57774 21.6726 7.53014 23.0711 8.92866L25.6067 11.4642H22.0209C21.7557 11.4642 21.5013 11.5696 21.3138 11.7571C21.1263 11.9447 21.0209 12.199 21.0209 12.4642C21.0209 12.7295 21.1263 12.9838 21.3138 13.1713C21.5013 13.3589 21.7557 13.4642 22.0209 13.4642H28.0209C28.0246 13.4642 28.0282 13.4637 28.032 13.4637C28.0611 13.4634 28.0903 13.4621 28.1192 13.4593C28.1354 13.4577 28.151 13.4547 28.1669 13.4524Z"
    fill="#F1F1F1" />
  <path
    d="M11.2618 20.238V12.9021H11.2383L9.00004 14.5134V13.4002L11.25 11.783H12.2813V20.238H11.2618Z"
    fill="#F1F1F1" />
  <path
    d="M17.3848 20.3787C15.4102 20.3787 14.2676 18.6795 14.2676 16.0076C14.2676 13.3591 15.4219 11.6423 17.3848 11.6423C19.3477 11.6423 20.4903 13.3474 20.4903 16.0017C20.4903 18.6736 19.3536 20.3787 17.3848 20.3787ZM17.3848 19.4587C18.7032 19.4587 19.4297 18.117 19.4297 16.0076C19.4297 13.9275 18.6914 12.5681 17.3848 12.5681C16.0782 12.5681 15.3282 13.9392 15.3282 16.0017C15.3282 18.1111 16.0606 19.4587 17.3848 19.4587Z"
    fill="#F1F1F1" />
</svg>
  