<svg width="24" height="24" viewBox="0 0 24 24" fill="none" xmlns="http://www.w3.org/2000/svg">
  <path
    d="M9.08997 8.99999C9.32507 8.33166 9.78912 7.7681 10.3999 7.40912C11.0107 7.05015 11.7289 6.91893 12.4271 7.0387C13.1254 7.15848 13.7588 7.52151 14.215 8.06352C14.6713 8.60552 14.921 9.29151 14.92 9.99999C14.92 12 11.92 13 11.92 13M12 17H12.01M2 8.52274V15.4773C2 15.7218 2 15.8441 2.02763 15.9592C2.05213 16.0613 2.09253 16.1588 2.14736 16.2483C2.2092 16.3492 2.29568 16.4357 2.46863 16.6086L7.39137 21.5314C7.56432 21.7043 7.6508 21.7908 7.75172 21.8526C7.84119 21.9075 7.93873 21.9479 8.04077 21.9724C8.15586 22 8.27815 22 8.52274 22H15.4773C15.7218 22 15.8441 22 15.9592 21.9724C16.0613 21.9479 16.1588 21.9075 16.2483 21.8526C16.3492 21.7908 16.4357 21.7043 16.6086 21.5314L21.5314 16.6086C21.7043 16.4357 21.7908 16.3492 21.8526 16.2483C21.9075 16.1588 21.9479 16.0613 21.9724 15.9592C22 15.8441 22 15.7218 22 15.4773V8.52274C22 8.27815 22 8.15586 21.9724 8.04077C21.9479 7.93873 21.9075 7.84119 21.8526 7.75172C21.7908 7.6508 21.7043 7.56432 21.5314 7.39137L16.6086 2.46863C16.4357 2.29568 16.3492 2.2092 16.2483 2.14736C16.1588 2.09253 16.0613 2.05213 15.9592 2.02763C15.8441 2 15.7218 2 15.4773 2H8.52274C8.27815 2 8.15586 2 8.04077 2.02763C7.93873 2.05213 7.84119 2.09253 7.75172 2.14736C7.6508 2.2092 7.56432 2.29568 7.39137 2.46863L2.46863 7.39137C2.29568 7.56432 2.2092 7.6508 2.14736 7.75172C2.09253 7.84119 2.05213 7.93873 2.02763 8.04077C2 8.15586 2 8.27815 2 8.52274Z"
    stroke="#F1F1F1" stroke-width="2" stroke-linecap="round" stroke-linejoin="round" />
</svg>
  