<svg width="28" height="28" viewBox="0 0 28 28" fill="none" xmlns="http://www.w3.org/2000/svg">
  <path
    d="M23.625 5.25H4.375C3.91103 5.25053 3.46622 5.43508 3.13815 5.76315C2.81008 6.09122 2.62553 6.53603 2.625 7V21C2.62553 21.464 2.81008 21.9088 3.13815 22.2369C3.46622 22.5649 3.91103 22.7495 4.375 22.75H23.625C24.089 22.7495 24.5338 22.5649 24.8619 22.2369C25.1899 21.9088 25.3745 21.464 25.375 21V7C25.3745 6.53603 25.1899 6.09122 24.8619 5.76315C24.5338 5.43508 24.089 5.25053 23.625 5.25ZM4.375 7H23.625L23.6255 13.125H15.75C15.286 13.1255 14.8412 13.3101 14.5131 13.6381C14.1851 13.9662 14.0005 14.411 14 14.875V21H4.375V7Z"
    fill="#F1F1F1" />
</svg>
  