<svg width="24" height="24" viewBox="0 0 24 24" fill="none" xmlns="http://www.w3.org/2000/svg">
  <path
    d="M17.871 12.7497L20.25 12.7497C20.4489 12.7497 20.6397 12.6707 20.7803 12.53C20.921 12.3894 21 12.1986 21 11.9997C21 11.8008 20.921 11.61 20.7803 11.4694C20.6397 11.3287 20.4489 11.2497 20.25 11.2497L17.871 11.2497C17.716 10.811 17.4288 10.4312 17.0489 10.1626C16.669 9.89395 16.2152 9.74969 15.75 9.74969C15.2847 9.74969 14.8309 9.89395 14.4511 10.1626C14.0712 10.4312 13.784 10.811 13.629 11.2497L3.75 11.2497C3.55109 11.2497 3.36032 11.3287 3.21967 11.4694C3.07902 11.61 3 11.8008 3 11.9997C3 12.1986 3.07902 12.3894 3.21967 12.53C3.36032 12.6707 3.55109 12.7497 3.75 12.7497L13.629 12.7497C13.784 13.1884 14.0712 13.5682 14.4511 13.8368C14.8309 14.1054 15.2848 14.2497 15.75 14.2497C16.2152 14.2497 16.6691 14.1054 17.0489 13.8368C17.4288 13.5682 17.716 13.1884 17.871 12.7497L17.871 12.7497Z"
    fill="#F1F1F1" />
  <path
    d="M8.25 20.9997C8.71511 20.9991 9.16865 20.8546 9.54839 20.5861C9.92813 20.3175 10.2155 19.938 10.371 19.4997L20.25 19.4998C20.4489 19.4998 20.6397 19.4208 20.7803 19.2801C20.921 19.1395 21 18.9487 21 18.7498C21 18.5509 20.921 18.3601 20.7803 18.2195C20.6397 18.0788 20.4489 17.9998 20.25 17.9998L10.371 17.9997C10.216 17.561 9.92876 17.1812 9.5489 16.9126C9.16905 16.6439 8.71525 16.4997 8.25 16.4997C7.78475 16.4997 7.33095 16.6439 6.95109 16.9126C6.57124 17.1812 6.28403 17.561 6.12901 17.9997L3.75 17.9998C3.55109 17.9998 3.36032 18.0788 3.21967 18.2195C3.07902 18.3601 3 18.5509 3 18.7498C3 18.9487 3.07902 19.1395 3.21967 19.2801C3.36032 19.4208 3.55109 19.4998 3.75 19.4998L6.12902 19.4997C6.28454 19.938 6.57188 20.3175 6.95162 20.5861C7.33136 20.8546 7.78489 20.9991 8.25 20.9997Z"
    fill="#F1F1F1" />
  <path
    d="M13.371 5.9997L20.25 5.99965C20.4489 5.99965 20.6397 5.92064 20.7803 5.77998C20.921 5.63933 21 5.44857 21 5.24965C21 5.05074 20.921 4.85998 20.7803 4.71932C20.6397 4.57867 20.4489 4.49965 20.25 4.49965L13.371 4.4997C13.216 4.06104 12.9288 3.68123 12.5489 3.41259C12.1691 3.14395 11.7152 2.99969 11.25 2.99969C10.7848 2.99969 10.3309 3.14395 9.95109 3.41259C9.57124 3.68123 9.28403 4.06104 9.12901 4.4997L3.75 4.49965C3.55109 4.49965 3.36032 4.57867 3.21967 4.71932C3.07902 4.85998 3 5.05074 3 5.24965C3 5.44857 3.07902 5.63933 3.21967 5.77998C3.36032 5.92064 3.55109 5.99965 3.75 5.99965L9.12901 5.9997C9.28403 6.43836 9.57124 6.81817 9.95109 7.08681C10.3309 7.35545 10.7848 7.4997 11.25 7.4997C11.7152 7.4997 12.1691 7.35545 12.5489 7.08681C12.9288 6.81817 13.216 6.43836 13.371 5.9997Z"
    fill="#F1F1F1" />
</svg>
  