<svg width="24" height="24" viewBox="0 0 24 24" fill="none" xmlns="http://www.w3.org/2000/svg">
  <path
    d="M5 19V5M16.4005 6.0796L10.5617 10.7506C10.0279 11.1777 9.761 11.3912 9.6643 11.6492C9.5796 11.8754 9.5796 12.1246 9.6643 12.3508C9.761 12.6088 10.0279 12.8223 10.5617 13.2494L16.4005 17.9204C17.2327 18.5861 17.6487 18.919 17.9989 18.9194C18.3035 18.9197 18.5915 18.7812 18.7815 18.5432C19 18.2696 19 17.7367 19 16.671V7.329C19 6.2633 19 5.7305 18.7815 5.4568C18.5915 5.2188 18.3035 5.0803 17.9989 5.0806C17.6487 5.081 17.2327 5.4139 16.4005 6.0796Z"
    stroke="#F1F1F1" stroke-width="2" stroke-linecap="round" stroke-linejoin="round" />
</svg>
  